<mxfile host="Electron" modified="2024-02-27T22:08:59.270Z" agent="Mozilla/5.0 (Windows NT 10.0; Win64; x64) AppleWebKit/537.36 (KHTML, like Gecko) draw.io/23.1.5 Chrome/120.0.6099.109 Electron/28.1.0 Safari/537.36" etag="3PLYSg7w4qG4lI31bZkK" version="23.1.5" type="device">
  <diagram id="pO080ULWVFRPkJFq8dy7" name="Página-1">
    <mxGraphModel dx="1963" dy="932" grid="1" gridSize="10" guides="1" tooltips="1" connect="1" arrows="1" fold="1" page="1" pageScale="1" pageWidth="827" pageHeight="1169" math="0" shadow="0">
      <root>
        <mxCell id="0" />
        <mxCell id="1" parent="0" />
        <mxCell id="1N5712yH5s_NPY4bhr51-1" value="Persona" style="swimlane;fontStyle=1;align=center;verticalAlign=top;childLayout=stackLayout;horizontal=1;startSize=26;horizontalStack=0;resizeParent=1;resizeParentMax=0;resizeLast=0;collapsible=1;marginBottom=0;" parent="1" vertex="1">
          <mxGeometry x="860" y="20" width="330" height="380" as="geometry" />
        </mxCell>
        <mxCell id="1N5712yH5s_NPY4bhr51-2" value="-_listaPersonas: list   &#xa;-_id: integer&#xa;-_nombre:string&#xa;-_apellido: string&#xa;-_dni: integer" style="text;strokeColor=none;fillColor=none;align=left;verticalAlign=top;spacingLeft=4;spacingRight=4;overflow=hidden;rotatable=0;points=[[0,0.5],[1,0.5]];portConstraint=eastwest;" parent="1N5712yH5s_NPY4bhr51-1" vertex="1">
          <mxGeometry y="26" width="330" height="84" as="geometry" />
        </mxCell>
        <mxCell id="1N5712yH5s_NPY4bhr51-3" value="" style="line;strokeWidth=1;fillColor=none;align=left;verticalAlign=middle;spacingTop=-1;spacingLeft=3;spacingRight=3;rotatable=0;labelPosition=right;points=[];portConstraint=eastwest;strokeColor=inherit;" parent="1N5712yH5s_NPY4bhr51-1" vertex="1">
          <mxGeometry y="110" width="330" height="8" as="geometry" />
        </mxCell>
        <mxCell id="1N5712yH5s_NPY4bhr51-4" value="&lt;&lt;Constructores&gt;&gt;&#xa;+ construct(nombre: string, apellido:string, dni:integer)&#xa;&#xa;&lt;&lt;Comandos: getters y setters&gt;&gt;&#xa;+ getId(): integer&#xa;+ getNombre(): string&#xa;+ setNombre(nuevo: string): void&#xa;+ getApellido(): string&#xa;+ setApellido(nuevo: string): void&#xa;+ getDni(): integer&#xa;+ setDni(nuevo: integer): void&#xa;&#xa;&lt;&lt;Metodos&gt;&gt;&#xa;+ __str__(): str&#xa;+ existePersona(idPersona:integer): boolean" style="text;strokeColor=none;fillColor=none;align=left;verticalAlign=top;spacingLeft=4;spacingRight=4;overflow=hidden;rotatable=0;points=[[0,0.5],[1,0.5]];portConstraint=eastwest;" parent="1N5712yH5s_NPY4bhr51-1" vertex="1">
          <mxGeometry y="118" width="330" height="262" as="geometry" />
        </mxCell>
        <mxCell id="1N5712yH5s_NPY4bhr51-5" value="Inmobiliaria" style="swimlane;fontStyle=1;align=center;verticalAlign=top;childLayout=stackLayout;horizontal=1;startSize=26;horizontalStack=0;resizeParent=1;resizeParentMax=0;resizeLast=0;collapsible=1;marginBottom=0;" parent="1" vertex="1">
          <mxGeometry x="860" y="520" width="270" height="310" as="geometry" />
        </mxCell>
        <mxCell id="1N5712yH5s_NPY4bhr51-6" value="-_cuadroTarifario: tuple&lt;br&gt;-_listaInmobiliarias: list   &lt;br&gt;-_id: integer&lt;br&gt;-_razonSocial: string&lt;br&gt;-_cuit: integer" style="text;strokeColor=none;fillColor=none;align=left;verticalAlign=top;spacingLeft=4;spacingRight=4;overflow=hidden;rotatable=0;points=[[0,0.5],[1,0.5]];portConstraint=eastwest;html=1;" parent="1N5712yH5s_NPY4bhr51-5" vertex="1">
          <mxGeometry y="26" width="270" height="94" as="geometry" />
        </mxCell>
        <mxCell id="1N5712yH5s_NPY4bhr51-7" value="" style="line;strokeWidth=1;fillColor=none;align=left;verticalAlign=middle;spacingTop=-1;spacingLeft=3;spacingRight=3;rotatable=0;labelPosition=right;points=[];portConstraint=eastwest;strokeColor=inherit;" parent="1N5712yH5s_NPY4bhr51-5" vertex="1">
          <mxGeometry y="120" width="270" height="8" as="geometry" />
        </mxCell>
        <mxCell id="1N5712yH5s_NPY4bhr51-8" value="&lt;&lt;Constructores&gt;&gt;&#xa;+ construct(razonSocial: string, cuit: integer)&#xa;&#xa;&lt;&lt;Comandos: getters y setters&gt;&gt;&#xa;+ getId(): integer&#xa;+ getRazonSocial(): string&#xa;+ setRazonSocial(nuevo: string): void&#xa;+ getCuit(): integer&#xa;+ setCuit(nuevo: integer): void&#xa;+ calcularComision(precio: float): float           " style="text;strokeColor=none;fillColor=none;align=left;verticalAlign=top;spacingLeft=4;spacingRight=4;overflow=hidden;rotatable=0;points=[[0,0.5],[1,0.5]];portConstraint=eastwest;" parent="1N5712yH5s_NPY4bhr51-5" vertex="1">
          <mxGeometry y="128" width="270" height="182" as="geometry" />
        </mxCell>
        <mxCell id="1N5712yH5s_NPY4bhr51-9" value="Casa" style="swimlane;fontStyle=1;align=center;verticalAlign=top;childLayout=stackLayout;horizontal=1;startSize=26;horizontalStack=0;resizeParent=1;resizeParentMax=0;resizeLast=0;collapsible=1;marginBottom=0;" parent="1" vertex="1">
          <mxGeometry x="174" y="1070" width="240" height="310" as="geometry" />
        </mxCell>
        <mxCell id="1N5712yH5s_NPY4bhr51-10" value="-_supPatio: float&#xa;-_cochera: boolean" style="text;strokeColor=none;fillColor=none;align=left;verticalAlign=top;spacingLeft=4;spacingRight=4;overflow=hidden;rotatable=0;points=[[0,0.5],[1,0.5]];portConstraint=eastwest;" parent="1N5712yH5s_NPY4bhr51-9" vertex="1">
          <mxGeometry y="26" width="240" height="44" as="geometry" />
        </mxCell>
        <mxCell id="1N5712yH5s_NPY4bhr51-11" value="" style="line;strokeWidth=1;fillColor=none;align=left;verticalAlign=middle;spacingTop=-1;spacingLeft=3;spacingRight=3;rotatable=0;labelPosition=right;points=[];portConstraint=eastwest;strokeColor=inherit;" parent="1N5712yH5s_NPY4bhr51-9" vertex="1">
          <mxGeometry y="70" width="240" height="30" as="geometry" />
        </mxCell>
        <mxCell id="1N5712yH5s_NPY4bhr51-12" value="&lt;&lt;Constructores&gt;&gt;&#xa;+ construct(direccion: string, ambientes: integer,&#xa;superficie: float, propietario: Persona,&#xa;inmobiliaria: Inmobiliaria, supPatio: float,&#xa;cochera: boolean, tipo: string=&#39;casa&#39;)&#xa;&#xa;&lt;&lt;Comandos: setters y getters&gt;&gt;&#xa;+ getSupPatio(): float &#xa;+ setSupPatio(nuevo: float): void &#xa;+ getCochera(): boolean&#xa;+ setCochera(nuevo: boolean): void" style="text;strokeColor=none;fillColor=none;align=left;verticalAlign=top;spacingLeft=4;spacingRight=4;overflow=hidden;rotatable=0;points=[[0,0.5],[1,0.5]];portConstraint=eastwest;" parent="1N5712yH5s_NPY4bhr51-9" vertex="1">
          <mxGeometry y="100" width="240" height="210" as="geometry" />
        </mxCell>
        <mxCell id="1N5712yH5s_NPY4bhr51-13" value="Departamento&#xa;" style="swimlane;fontStyle=1;align=center;verticalAlign=top;childLayout=stackLayout;horizontal=1;startSize=26;horizontalStack=0;resizeParent=1;resizeParentMax=0;resizeLast=0;collapsible=1;marginBottom=0;" parent="1" vertex="1">
          <mxGeometry x="490" y="1070" width="290" height="320" as="geometry" />
        </mxCell>
        <mxCell id="1N5712yH5s_NPY4bhr51-14" value="-_expensas: float&#xa;-_nroDpto: string&#xa;-_cochera: boolean" style="text;strokeColor=none;fillColor=none;align=left;verticalAlign=top;spacingLeft=4;spacingRight=4;overflow=hidden;rotatable=0;points=[[0,0.5],[1,0.5]];portConstraint=eastwest;" parent="1N5712yH5s_NPY4bhr51-13" vertex="1">
          <mxGeometry y="26" width="290" height="54" as="geometry" />
        </mxCell>
        <mxCell id="1N5712yH5s_NPY4bhr51-15" value="" style="line;strokeWidth=1;fillColor=none;align=left;verticalAlign=middle;spacingTop=-1;spacingLeft=3;spacingRight=3;rotatable=0;labelPosition=right;points=[];portConstraint=eastwest;strokeColor=inherit;" parent="1N5712yH5s_NPY4bhr51-13" vertex="1">
          <mxGeometry y="80" width="290" height="8" as="geometry" />
        </mxCell>
        <mxCell id="1N5712yH5s_NPY4bhr51-16" value="&lt;&lt;Constructores&gt;&gt;&#xa;+ construct(direccion: string, ambientes: integer, &#xa;superficie: float, propietario: Persona,&#xa;inmobiliaria: Inmobiliaria, expensas: float,&#xa;nroDpto: string, cochera: boolean, &#xa;tipo: string=&#39;departamento&#39;)&#xa;&#xa;&lt;&lt;Comandos: setters y getters&gt;&gt;&#xa;+ getExpensas(): float &#xa;+ setExpensas(nuevo: float): void &#xa;+ getNroDpto(): string&#xa;+ setNroDpto(nuevo: string): void &#xa;+ getCochera(): boolean&#xa;+ setCochera(nuevo: boolean): void    " style="text;strokeColor=none;fillColor=none;align=left;verticalAlign=top;spacingLeft=4;spacingRight=4;overflow=hidden;rotatable=0;points=[[0,0.5],[1,0.5]];portConstraint=eastwest;" parent="1N5712yH5s_NPY4bhr51-13" vertex="1">
          <mxGeometry y="88" width="290" height="232" as="geometry" />
        </mxCell>
        <mxCell id="1N5712yH5s_NPY4bhr51-17" value="Inmueble" style="swimlane;fontStyle=1;align=center;verticalAlign=top;childLayout=stackLayout;horizontal=1;startSize=26;horizontalStack=0;resizeParent=1;resizeParentMax=0;resizeLast=0;collapsible=1;marginBottom=0;" parent="1" vertex="1">
          <mxGeometry x="290" y="20" width="370" height="930" as="geometry" />
        </mxCell>
        <mxCell id="1N5712yH5s_NPY4bhr51-18" value="-_listaEstado: list &#xa;-_listaInmuebles: list &#xa;-_listaInmueblesXpropietario: list &#xa;-_listaInmueblesXinmobiliaria: list&#xa;-_id: integer&#xa;-_direccion: string&#xa;-_ambientes: integer&#xa;-_superficie: float&#xa;-_propietario: Persona&#xa;-_inmobiliaria: Inmobiliaria&#xa;-_tipo: string&#xa;-_inquilino: Inquilino =None, &#xa;-_precioAlquilerPropietario: float =0&#xa;-_precioVentaPropietario: float =0&#xa;-_precioFinalAlquiler: float =0&#xa;-_precioFinalVenta: float =0&#xa;-_comisionAlquiler: float =0&#xa;-_comisionVenta: float =0&#xa;-_estado: string = &#39;inactivo&#39;" style="text;strokeColor=none;fillColor=none;align=left;verticalAlign=top;spacingLeft=4;spacingRight=4;overflow=hidden;rotatable=0;points=[[0,0.5],[1,0.5]];portConstraint=eastwest;" parent="1N5712yH5s_NPY4bhr51-17" vertex="1">
          <mxGeometry y="26" width="370" height="284" as="geometry" />
        </mxCell>
        <mxCell id="1N5712yH5s_NPY4bhr51-19" value="" style="line;strokeWidth=1;fillColor=none;align=left;verticalAlign=middle;spacingTop=-1;spacingLeft=3;spacingRight=3;rotatable=0;labelPosition=right;points=[];portConstraint=eastwest;strokeColor=inherit;" parent="1N5712yH5s_NPY4bhr51-17" vertex="1">
          <mxGeometry y="310" width="370" height="18" as="geometry" />
        </mxCell>
        <mxCell id="1N5712yH5s_NPY4bhr51-20" value="&lt;&lt;Constructores&gt;&gt;&#xa;+ construct(direccion: string, ambientes: integer, superficie: float, &#xa;propietario: Propietario, inmobiliaria: Inmobiliaria, tipo: string)&#xa;&#xa;&lt;&lt;Comandos: setters y getters&gt;&gt;&#xa;+ getId(): int&#xa;+ getDireccion(): string &#xa;+ setDireccion(nuevo:string): void&#xa;+ getAmbientes(): integer&#xa;+ setAmbientes(nuevo:integer): void&#xa;+ getSuperficie(): float &#xa;+ setSuperficie(nuevo:float): void &#xa;+ getEstado(): string &#xa;+ setEstado(nuevo:string): void &#xa;+ getPropietario(): Persona &#xa;+ setPropietario(nuevo: Persona): void &#xa;+ getInmobiliaria(): Inmobiliaria &#xa;+ setInmobiliaria(nuevo: Inmobiliaria): void &#xa;+ getTipo(): string&#xa;+ getInquilino(): Persona &#xa;+ setInquilino(nuevo: Persona): void &#xa;+ getPrecioAlquilerPropietario(): float &#xa;+ setPrecioAlquilerPropietario(nuevo: float): void&#xa;+ getPrecioVentaPropietario(): float&#xa;+ setPrecioVentaPropietario(nuevo: float): void &#xa;+ getPrecioFinalAlquiler(): float&#xa;+ getPrecioFinalVenta(): float&#xa;+ getComisionAlquiler(): float&#xa;+ getComisionVenta(): float&#xa;&#xa;&lt;&lt;Metodos&gt;&gt;&#xa;+ __str__(): str &#xa;+ getInmuebles(): list&#xa;+ getInmueble(id: integer): Inmueble &#xa;+ eliminarInmueble(id: integer): boolean&#xa;+ __iter__(): Iterator&#xa;+ __next__(): Inmueble&#xa;+ inmueblesPorPropietario(idPropietario: integer): list&#xa;+ inmueblesPorInmobiliaria(idInmobiliaria: integer): list&#xa;+ calcular_precio(inmueble: Inmueble): string" style="text;strokeColor=none;fillColor=none;align=left;verticalAlign=top;spacingLeft=4;spacingRight=4;overflow=hidden;rotatable=0;points=[[0,0.5],[1,0.5]];portConstraint=eastwest;" parent="1N5712yH5s_NPY4bhr51-17" vertex="1">
          <mxGeometry y="328" width="370" height="602" as="geometry" />
        </mxCell>
        <mxCell id="1N5712yH5s_NPY4bhr51-30" value="Quincho" style="swimlane;fontStyle=1;align=center;verticalAlign=top;childLayout=stackLayout;horizontal=1;startSize=26;horizontalStack=0;resizeParent=1;resizeParentMax=0;resizeLast=0;collapsible=1;marginBottom=0;" parent="1" vertex="1">
          <mxGeometry x="950" y="1070" width="300" height="380" as="geometry" />
        </mxCell>
        <mxCell id="1N5712yH5s_NPY4bhr51-31" value="-_listaReservas: List[string]&#xa;-_parrilla: boolean&#xa;-_pileta: boolean&#xa;-_capacidad: integer" style="text;strokeColor=none;fillColor=none;align=left;verticalAlign=top;spacingLeft=4;spacingRight=4;overflow=hidden;rotatable=0;points=[[0,0.5],[1,0.5]];portConstraint=eastwest;" parent="1N5712yH5s_NPY4bhr51-30" vertex="1">
          <mxGeometry y="26" width="300" height="84" as="geometry" />
        </mxCell>
        <mxCell id="1N5712yH5s_NPY4bhr51-32" value="" style="line;strokeWidth=1;fillColor=none;align=left;verticalAlign=middle;spacingTop=-1;spacingLeft=3;spacingRight=3;rotatable=0;labelPosition=right;points=[];portConstraint=eastwest;strokeColor=inherit;" parent="1N5712yH5s_NPY4bhr51-30" vertex="1">
          <mxGeometry y="110" width="300" height="8" as="geometry" />
        </mxCell>
        <mxCell id="1N5712yH5s_NPY4bhr51-33" value="&lt;&lt;Constructores&gt;&gt;&#xa;+ construct(direccion: string, superficie: float,&#xa;propietario: Persona, inmobiliaria: Inmobiliaria,&#xa;parrilla: boolean, pileta: boolean, capacidad: integer,&#xa;ambientes:integer =1, tipo:string =&#39;quincho&#39;)&#xa;&#xa;&lt;&lt;Comandos: getters y setters&gt;&gt;&#xa;+ getParrilla(): boolean&#xa;+ setParrilla(nuevo: boolean): void &#xa;+ getPileta(): boolean&#xa;+ setPileta(nuevo: boolean): void &#xa;+ getCapacidad(): integer&#xa;+ setCapacidad(nuevo: integer): void&#xa;&#xa;&lt;&lt;Metodos&gt;&gt;&#xa;+ getListaReservas(): List[string] &#xa;+ setListaReservas(nuevo: string): void" style="text;strokeColor=none;fillColor=none;align=left;verticalAlign=top;spacingLeft=4;spacingRight=4;overflow=hidden;rotatable=0;points=[[0,0.5],[1,0.5]];portConstraint=eastwest;" parent="1N5712yH5s_NPY4bhr51-30" vertex="1">
          <mxGeometry y="118" width="300" height="262" as="geometry" />
        </mxCell>
        <mxCell id="P6t8mrCn2vhdrIqLOYjk-9" value="0 ..n" style="text;align=center;fontStyle=1;verticalAlign=middle;spacingLeft=3;spacingRight=3;strokeColor=none;rotatable=0;points=[[0,0.5],[1,0.5]];portConstraint=eastwest;html=1;" vertex="1" parent="1">
          <mxGeometry x="640" y="240" width="80" height="26" as="geometry" />
        </mxCell>
        <mxCell id="P6t8mrCn2vhdrIqLOYjk-10" value="1...n" style="text;align=center;fontStyle=1;verticalAlign=middle;spacingLeft=3;spacingRight=3;strokeColor=none;rotatable=0;points=[[0,0.5],[1,0.5]];portConstraint=eastwest;html=1;" vertex="1" parent="1">
          <mxGeometry x="800" y="240" width="80" height="26" as="geometry" />
        </mxCell>
        <mxCell id="P6t8mrCn2vhdrIqLOYjk-15" value="0..n" style="text;align=center;fontStyle=1;verticalAlign=middle;spacingLeft=3;spacingRight=3;strokeColor=none;rotatable=0;points=[[0,0.5],[1,0.5]];portConstraint=eastwest;html=1;" vertex="1" parent="1">
          <mxGeometry x="640" y="559" width="80" height="26" as="geometry" />
        </mxCell>
        <mxCell id="P6t8mrCn2vhdrIqLOYjk-16" value="1" style="text;align=center;fontStyle=1;verticalAlign=middle;spacingLeft=3;spacingRight=3;strokeColor=none;rotatable=0;points=[[0,0.5],[1,0.5]];portConstraint=eastwest;html=1;" vertex="1" parent="1">
          <mxGeometry x="800" y="559" width="80" height="26" as="geometry" />
        </mxCell>
        <mxCell id="P6t8mrCn2vhdrIqLOYjk-17" value="" style="endArrow=diamondThin;endFill=0;endSize=24;html=1;rounded=0;entryX=1;entryY=0.781;entryDx=0;entryDy=0;entryPerimeter=0;" edge="1" parent="1" source="1N5712yH5s_NPY4bhr51-4" target="1N5712yH5s_NPY4bhr51-18">
          <mxGeometry width="160" relative="1" as="geometry">
            <mxPoint x="690" y="290" as="sourcePoint" />
            <mxPoint x="660" y="269" as="targetPoint" />
          </mxGeometry>
        </mxCell>
        <mxCell id="P6t8mrCn2vhdrIqLOYjk-18" value="" style="endArrow=diamondThin;endFill=0;endSize=24;html=1;rounded=0;entryX=1.001;entryY=0.691;entryDx=0;entryDy=0;entryPerimeter=0;" edge="1" parent="1">
          <mxGeometry width="160" relative="1" as="geometry">
            <mxPoint x="860" y="587" as="sourcePoint" />
            <mxPoint x="660" y="585" as="targetPoint" />
          </mxGeometry>
        </mxCell>
        <mxCell id="P6t8mrCn2vhdrIqLOYjk-19" value="Extends" style="endArrow=block;endSize=16;endFill=0;html=1;rounded=0;entryX=0.975;entryY=1.026;entryDx=0;entryDy=0;entryPerimeter=0;exitX=0.5;exitY=0;exitDx=0;exitDy=0;" edge="1" parent="1" source="1N5712yH5s_NPY4bhr51-30">
          <mxGeometry width="160" relative="1" as="geometry">
            <mxPoint x="677" y="967" as="sourcePoint" />
            <mxPoint x="660" y="850" as="targetPoint" />
          </mxGeometry>
        </mxCell>
        <mxCell id="P6t8mrCn2vhdrIqLOYjk-20" value="Extends" style="endArrow=block;endSize=16;endFill=0;html=1;rounded=0;entryX=0.871;entryY=0.999;entryDx=0;entryDy=0;entryPerimeter=0;" edge="1" parent="1" source="1N5712yH5s_NPY4bhr51-13" target="1N5712yH5s_NPY4bhr51-20">
          <mxGeometry width="160" relative="1" as="geometry">
            <mxPoint x="1035" y="1000" as="sourcePoint" />
            <mxPoint x="680" y="930" as="targetPoint" />
          </mxGeometry>
        </mxCell>
        <mxCell id="P6t8mrCn2vhdrIqLOYjk-21" value="Extends" style="endArrow=block;endSize=16;endFill=0;html=1;rounded=0;exitX=0.5;exitY=0;exitDx=0;exitDy=0;" edge="1" parent="1" source="1N5712yH5s_NPY4bhr51-9" target="1N5712yH5s_NPY4bhr51-20">
          <mxGeometry width="160" relative="1" as="geometry">
            <mxPoint x="611" y="1000" as="sourcePoint" />
            <mxPoint x="240" y="900" as="targetPoint" />
          </mxGeometry>
        </mxCell>
      </root>
    </mxGraphModel>
  </diagram>
</mxfile>
